<?xml version="1.0" encoding="UTF-8" standalone="no"?>
<!-- Created with Inkscape (http://www.inkscape.org/) -->
<svg
   xmlns:dc="http://purl.org/dc/elements/1.1/"
   xmlns:cc="http://creativecommons.org/ns#"
   xmlns:rdf="http://www.w3.org/1999/02/22-rdf-syntax-ns#"
   xmlns:svg="http://www.w3.org/2000/svg"
   xmlns="http://www.w3.org/2000/svg"
   xmlns:xlink="http://www.w3.org/1999/xlink"
   xmlns:sodipodi="http://sodipodi.sourceforge.net/DTD/sodipodi-0.dtd"
   xmlns:inkscape="http://www.inkscape.org/namespaces/inkscape"
   width="493"
   height="312"
   id="svg2"
   sodipodi:version="0.32"
   inkscape:version="0.46"
   version="1.0"
   sodipodi:docname="dlgbmp.svg"
   inkscape:output_extension="org.inkscape.output.svg.inkscape"
   inkscape:export-filename="J:\My Projects\Fraunhofer\Workspace\CityServer3D\admintool\release\Bitmaps\dlgbmp.bmp.png"
   inkscape:export-xdpi="90"
   inkscape:export-ydpi="90">
  <defs
     id="defs4">
    <linearGradient
       id="linearGradient3300">
      <stop
         style="stop-color:#f1f1f1;stop-opacity:1;"
         offset="0"
         id="stop3302" />
      <stop
         style="stop-color:#ffffff;stop-opacity:1"
         offset="1"
         id="stop3304" />
    </linearGradient>
    <inkscape:perspective
       sodipodi:type="inkscape:persp3d"
       inkscape:vp_x="0 : 526.18109 : 1"
       inkscape:vp_y="0 : 1000 : 0"
       inkscape:vp_z="744.09448 : 526.18109 : 1"
       inkscape:persp3d-origin="372.04724 : 350.78739 : 1"
       id="perspective10" />
    <clipPath
       id="clipPath3243"
       clipPathUnits="userSpaceOnUse">
      <path
         id="path3245"
         d="M 0,792 L 612,792 L 612,0 L 0,0 L 0,792 z" />
    </clipPath>
    <clipPath
       id="clipPath3227"
       clipPathUnits="userSpaceOnUse">
      <path
         id="path3229"
         d="M 237.616,388.988 L 426.366,388.988 L 426.366,417.988 L 237.616,417.988 L 237.616,388.988 z" />
    </clipPath>
    <clipPath
       id="clipPath3219"
       clipPathUnits="userSpaceOnUse">
      <path
         id="path3221"
         d="M 0,792 L 612,792 L 612,0 L 0,0 L 0,792 z" />
    </clipPath>
    <inkscape:perspective
       id="perspective3211"
       inkscape:persp3d-origin="372.04724 : 350.78739 : 1"
       inkscape:vp_z="744.09448 : 526.18109 : 1"
       inkscape:vp_y="0 : 1000 : 0"
       inkscape:vp_x="0 : 526.18109 : 1"
       sodipodi:type="inkscape:persp3d" />
    <linearGradient
       inkscape:collect="always"
       xlink:href="#linearGradient3300"
       id="linearGradient3306"
       x1="407.58026"
       y1="-186.59514"
       x2="389.866"
       y2="-327.73801"
       gradientUnits="userSpaceOnUse"
       gradientTransform="matrix(1.0787746,0,0,1.04,-13.426141,17.818098)" />
    <inkscape:perspective
       id="perspective2483"
       inkscape:persp3d-origin="372.04724 : 350.78739 : 1"
       inkscape:vp_z="744.09448 : 526.18109 : 1"
       inkscape:vp_y="0 : 1000 : 0"
       inkscape:vp_x="0 : 526.18109 : 1"
       sodipodi:type="inkscape:persp3d" />
    <inkscape:perspective
       id="perspective2533"
       inkscape:persp3d-origin="372.04724 : 350.78739 : 1"
       inkscape:vp_z="744.09448 : 526.18109 : 1"
       inkscape:vp_y="0 : 1000 : 0"
       inkscape:vp_x="0 : 526.18109 : 1"
       sodipodi:type="inkscape:persp3d" />
    <inkscape:perspective
       id="perspective2583"
       inkscape:persp3d-origin="372.04724 : 350.78739 : 1"
       inkscape:vp_z="744.09448 : 526.18109 : 1"
       inkscape:vp_y="0 : 1000 : 0"
       inkscape:vp_x="0 : 526.18109 : 1"
       sodipodi:type="inkscape:persp3d" />
  </defs>
  <sodipodi:namedview
     id="base"
     pagecolor="#ffffff"
     bordercolor="#666666"
     borderopacity="1.0"
     inkscape:pageopacity="0.0"
     inkscape:pageshadow="2"
     inkscape:zoom="1.4"
     inkscape:cx="135.0381"
     inkscape:cy="198.40343"
     inkscape:document-units="px"
     inkscape:current-layer="g3213"
     showgrid="false"
     inkscape:window-width="1680"
     inkscape:window-height="1000"
     inkscape:window-x="0"
     inkscape:window-y="14" />
  <metadata
     id="metadata7">
    <rdf:RDF>
      <cc:Work
         rdf:about="">
        <dc:format>image/svg+xml</dc:format>
        <dc:type
           rdf:resource="http://purl.org/dc/dcmitype/StillImage" />
      </cc:Work>
    </rdf:RDF>
  </metadata>
  <g
     inkscape:label="Ebene 1"
     inkscape:groupmode="layer"
     id="layer1">
    <g
       transform="matrix(1.25,0,0,-1.25,-213.04679,553.24393)"
       inkscape:label="igd_85mm_rgb23-156-125-emf"
       id="g3213">
      <rect
         style="fill:url(#linearGradient3306);fill-opacity:1;stroke:none;stroke-width:2;stroke-miterlimit:4;stroke-dasharray:none;stroke-opacity:1"
         id="rect3298"
         width="394.39999"
         height="249.60001"
         x="170.43744"
         y="-442.48087"
         transform="scale(1,-1)" />
      <g
         id="g3215"
         transform="matrix(0.4822552,0,0,0.4822552,344.87112,43.601448)">
        <g
           clip-path="url(#clipPath3219)"
           id="g3217">
          <g
             id="g3223">
            <g
               clip-path="url(#clipPath3227)"
               id="g3225">
              <path
                 id="path3231"
                 style="fill:#1a171b;fill-opacity:1;fill-rule:nonzero;stroke:none"
                 d="M 237.616,389.488 L 242.866,389.488 L 242.866,400.988 L 251.616,400.988 L 251.616,404.988 L 242.866,404.988 L 242.866,411.488 L 252.116,411.488 L 252.116,415.488 L 237.616,415.488 L 237.616,389.488 z M 255.616,389.488 L 260.616,389.488 L 260.616,396.488 C 260.616,399.238 260.616,404.488 264.866,404.488 C 265.616,404.488 266.616,404.238 267.116,403.988 L 267.116,408.988 C 266.616,409.238 265.866,409.238 265.616,409.238 C 262.616,409.238 260.366,406.238 260.116,404.238 L 260.116,408.738 L 255.616,408.738 L 255.616,389.488 z M 270.866,403.488 C 272.366,404.738 274.616,405.488 276.866,405.488 C 279.616,405.488 281.116,404.488 281.116,401.238 L 278.366,401.238 C 276.116,401.238 273.866,401.238 271.866,400.238 C 269.866,399.238 268.616,397.488 268.616,394.738 C 268.616,390.988 271.866,388.988 275.366,388.988 C 277.616,388.988 280.116,390.238 281.366,392.238 C 281.366,391.738 281.366,390.488 281.616,389.488 L 285.866,389.488 L 285.866,393.738 C 285.616,395.238 285.616,396.488 285.616,398.488 L 285.616,400.988 C 285.616,406.738 283.116,409.238 277.366,409.238 C 275.116,409.238 272.616,408.488 270.616,407.738 L 270.866,403.488 z M 273.366,394.988 C 273.366,397.988 276.616,398.238 278.866,398.238 L 281.116,398.238 C 281.116,396.738 280.866,395.488 280.116,394.238 C 279.366,393.238 278.116,392.738 276.616,392.738 C 274.616,392.738 273.366,393.238 273.366,394.988 M 307.616,408.738 L 302.616,408.738 L 302.616,399.238 C 302.616,396.738 301.866,392.738 298.116,392.738 C 294.866,392.738 294.866,395.988 294.866,398.488 L 294.866,408.738 L 289.866,408.738 L 289.866,396.488 C 289.866,392.238 291.866,388.988 296.366,388.988 C 299.116,388.988 301.116,390.238 302.866,391.988 L 302.866,389.488 L 307.616,389.488 L 307.616,408.738 z M 312.866,389.488 L 317.866,389.488 L 317.866,398.738 C 317.866,401.238 318.616,405.238 322.366,405.238 C 325.366,405.238 325.616,401.988 325.616,399.738 L 325.616,389.488 L 330.616,389.488 L 330.616,401.488 C 330.616,405.988 328.616,409.238 323.866,409.238 C 321.366,409.238 319.116,408.238 317.616,405.988 L 317.616,408.738 L 312.866,408.738 L 312.866,389.488 z M 335.616,389.488 L 340.616,389.488 L 340.616,398.738 C 340.616,401.238 341.616,405.238 345.116,405.238 C 348.366,405.238 348.366,401.988 348.366,399.738 L 348.366,389.488 L 353.366,389.488 L 353.366,401.488 C 353.366,405.988 351.366,409.238 346.866,409.238 C 344.366,409.238 342.116,407.988 340.866,405.988 L 340.616,405.988 L 340.616,417.488 L 335.616,417.488 L 335.616,389.488 z M 356.616,398.988 C 356.616,393.488 360.366,388.988 366.616,388.988 C 373.116,388.988 376.866,393.488 376.866,398.988 C 376.866,405.238 372.366,409.238 366.616,409.238 C 361.116,409.238 356.616,405.238 356.616,398.988 M 361.866,399.488 C 361.866,402.488 363.366,405.238 366.616,405.238 C 370.116,405.238 371.616,402.488 371.616,399.488 C 371.616,396.238 370.616,392.738 366.616,392.738 C 362.866,392.738 361.866,396.238 361.866,399.488 M 381.866,389.488 L 386.866,389.488 L 386.866,404.988 L 391.366,404.988 L 391.366,408.738 L 386.866,408.738 L 386.866,411.238 C 386.866,412.738 387.366,413.988 389.116,413.988 C 390.116,413.988 390.866,413.738 391.366,413.488 L 391.616,417.488 C 390.616,417.738 389.366,417.988 388.116,417.988 C 384.116,417.988 381.866,415.238 381.866,411.488 L 381.866,408.738 L 378.116,408.738 L 378.116,404.988 L 381.866,404.988 L 381.866,389.488 z M 397.866,400.988 C 398.116,403.488 399.616,405.488 402.366,405.488 C 405.116,405.488 406.366,403.488 406.366,400.988 L 397.866,400.988 z M 409.866,394.488 C 407.866,393.488 405.866,392.738 403.366,392.738 C 400.366,392.738 398.116,394.488 397.866,397.488 L 411.366,397.488 C 411.366,404.238 409.366,409.238 402.116,409.238 C 396.116,409.238 393.116,404.488 393.116,398.988 C 393.116,392.738 396.866,388.988 403.116,388.988 C 405.866,388.988 408.116,389.488 409.866,390.488 L 409.866,394.488 z M 414.866,389.488 L 419.866,389.488 L 419.866,396.488 C 419.866,399.238 419.866,404.488 423.866,404.488 C 424.866,404.488 425.866,404.238 426.366,403.988 L 426.366,408.988 C 425.616,409.238 425.116,409.238 424.616,409.238 C 421.616,409.238 419.616,406.238 419.366,404.238 L 419.366,408.738 L 414.866,408.738 L 414.866,389.488 z" />
            </g>
          </g>
          <path
             id="path3233"
             style="fill:#1a171b;fill-opacity:1;fill-rule:nonzero;stroke:none"
             d="M 395.866,375.988 L 398.366,375.988 L 398.366,362.988 L 395.866,362.988 L 395.866,375.988 z" />
          <path
             id="path3235"
             style="fill:#1a171b;fill-opacity:1;fill-rule:nonzero;stroke:none"
             d="M 408.366,374.238 C 406.866,374.238 405.866,373.738 405.116,372.988 C 404.366,371.988 403.866,370.738 403.866,369.488 C 403.866,367.988 404.366,366.988 405.116,366.238 C 405.866,365.238 406.866,364.738 408.116,364.738 C 408.866,364.738 409.366,364.988 409.866,364.988 L 409.866,368.488 L 407.116,368.488 L 407.116,370.488 L 412.366,370.488 L 412.366,363.488 C 410.866,362.988 409.616,362.738 408.116,362.738 C 406.116,362.738 404.366,363.238 403.116,364.488 C 401.866,365.488 401.116,366.988 401.116,369.238 C 401.366,373.988 403.616,376.238 408.116,376.238 C 409.616,376.238 410.866,375.988 411.866,375.738 L 411.616,373.488 C 410.616,373.988 409.616,374.238 408.366,374.238" />
          <path
             id="path3237"
             style="fill:#1a171b;fill-opacity:1;fill-rule:nonzero;stroke:none"
             d="M 418.116,364.988 L 419.366,364.988 C 420.616,364.988 421.616,365.488 422.366,366.238 C 423.116,366.988 423.616,367.988 423.616,369.488 C 423.616,370.988 423.116,371.988 422.366,372.738 C 421.616,373.488 420.616,373.988 419.366,373.988 L 418.116,373.988 L 418.116,364.988 z M 415.366,375.988 L 418.866,375.988 C 420.866,375.988 422.616,375.738 424.116,374.738 C 424.616,374.238 425.366,373.488 425.616,372.738 C 426.116,371.988 426.116,370.738 426.116,369.488 C 426.116,368.238 426.116,367.238 425.616,366.238 C 425.366,365.488 424.616,364.738 424.116,364.238 C 423.366,363.738 422.616,363.488 421.616,363.238 C 420.866,362.988 419.866,362.988 418.866,362.988 L 415.366,362.988 L 415.366,375.988 z" />
        </g>
      </g>
      <g
         id="g3239"
         transform="matrix(1.1826311,0,0,1.1826311,-29.984596,-85.26181)">
        <g
           clip-path="url(#clipPath3243)"
           id="g3241">
          <path
             id="path3247"
             style="fill:#179c7d;fill-opacity:1;fill-rule:nonzero;stroke:none"
             d="M 185.366,389.488 C 194.616,394.238 208.116,401.988 224.366,413.238 L 224.366,416.988 C 210.116,407.738 195.616,400.238 185.366,395.238 L 185.366,389.488 z" />
          <path
             id="path3249"
             style="fill:#179c7d;fill-opacity:1;fill-rule:nonzero;stroke:none"
             d="M 185.366,400.738 C 195.616,404.988 210.116,411.488 224.366,419.988 L 224.366,421.738 C 210.866,415.238 197.116,410.988 185.366,408.488 L 185.366,400.738 z" />
          <path
             id="path3251"
             style="fill:#179c7d;fill-opacity:1;fill-rule:nonzero;stroke:none"
             d="M 224.366,389.488 L 224.366,408.488 C 215.366,400.988 206.616,394.488 199.366,389.488 L 224.366,389.488 z" />
          <path
             id="path3253"
             style="fill:#179c7d;fill-opacity:1;fill-rule:nonzero;stroke:none"
             d="M 194.366,389.488 C 201.366,393.488 209.866,398.988 218.366,405.238 C 220.366,406.738 222.366,408.488 224.366,409.988 L 224.366,412.238 C 211.866,402.988 198.866,394.988 188.866,389.488 L 194.366,389.488 z" />
          <path
             id="path3255"
             style="fill:#179c7d;fill-opacity:1;fill-rule:nonzero;stroke:none"
             d="M 185.366,411.238 C 196.616,413.238 210.616,416.738 224.366,423.238 L 224.366,425.488 C 210.616,419.238 196.866,416.738 185.366,415.738 L 185.366,411.238 z" />
          <path
             id="path3257"
             style="fill:#179c7d;fill-opacity:1;fill-rule:nonzero;stroke:none"
             d="M 185.366,428.738 L 185.366,417.738 C 186.116,417.738 187.116,417.738 187.866,417.988 C 197.366,418.738 210.366,420.238 224.366,426.238 L 224.366,428.738 L 185.366,428.738 z" />
          <path
             id="path3259"
             style="fill:#ffffff;fill-opacity:1;fill-rule:nonzero;stroke:none"
             d="M 185.366,417.738 L 185.366,415.738 C 196.866,416.738 210.616,419.238 224.366,425.488 L 224.366,426.238 C 210.366,420.238 197.366,418.738 187.866,417.988 C 187.116,417.738 186.116,417.738 185.366,417.738" />
          <path
             id="path3261"
             style="fill:#ffffff;fill-opacity:1;fill-rule:nonzero;stroke:none"
             d="M 185.366,408.488 C 197.116,410.988 210.866,415.238 224.366,421.738 L 224.366,423.238 C 210.616,416.738 196.616,413.238 185.366,411.238 L 185.366,408.488 z" />
          <path
             id="path3263"
             style="fill:#ffffff;fill-opacity:1;fill-rule:nonzero;stroke:none"
             d="M 185.366,395.238 C 195.616,400.238 210.116,407.738 224.366,416.988 L 224.366,419.988 C 210.116,411.488 195.616,404.988 185.366,400.738 L 185.366,395.238 z" />
          <path
             id="path3265"
             style="fill:#ffffff;fill-opacity:1;fill-rule:nonzero;stroke:none"
             d="M 194.366,389.488 L 199.366,389.488 C 206.616,394.488 215.366,400.988 224.366,408.488 L 224.366,409.988 C 222.366,408.488 220.366,406.738 218.366,405.238 C 209.866,398.988 201.366,393.488 194.366,389.488" />
          <path
             id="path3267"
             style="fill:#ffffff;fill-opacity:1;fill-rule:nonzero;stroke:none"
             d="M 185.366,389.488 L 188.866,389.488 C 198.866,394.988 211.866,402.988 224.366,412.238 L 224.366,413.238 C 208.116,401.988 194.616,394.238 185.366,389.488" />
        </g>
      </g>
    </g>
    <path
       id="path2383"
       style="fill:#179c7d;fill-opacity:1;fill-rule:evenodd;stroke:none;stroke-width:1px;stroke-linecap:butt;stroke-linejoin:miter;stroke-opacity:1"
       d="M 492.07483,147.08678 C 423.00454,146.34599 403.65639,183.02402 337.03757,255.95715 C 273.33132,309.51046 167.8271,230.22744 118.73793,224.34972 C 67.643175,218.23184 25.137384,281.31053 -1.4396622e-07,295.47859 C 0.14043144,276.83641 0.14043144,269.37953 -1.4396622e-07,255.21147 C 25.137384,241.0434 66.800582,201.82673 117.89534,207.94461 C 166.9845,213.82233 264.90538,298.32516 328.61161,244.77184 C 395.23046,171.83873 423.00454,146.34599 492.07483,147.08678"
       sodipodi:nodetypes="ccsccscc" />
  </g>
</svg>
